<?xml version="1.0" encoding="UTF-8"?>
<svg width="100.34900268554688mm" height="104.51762756347657mm" viewBox="-14.0906982421875 -93.47857666015625 1543.830810546875 1607.9635009765625" xmlns="http://www.w3.org/2000/svg"><style>text { font-family: Helvetica, Arial, sans-serif; }</style><g transform="translate(787.5,645)"><g class="shapes"><path d="M-112.442,134.003A5,5,0,0,1,-119.594,134.526A180,180,0,1,1,177.112,32.117A5,5,0,0,1,171.159,36.117L102.621,21.654A5,5,0,0,1,98.718,15.964A100,100,0,1,0,-67.854,73.457A5,5,0,0,1,-67.416,80.343Z" fill="rgb(111, 111, 151)" stroke="white" stroke-width="0.8"/><path d="M169.999,41.235A5,5,0,0,1,173.644,47.411A180,180,0,0,1,-107.431,144.425A5,5,0,0,1,-108.372,137.316L-64.976,82.329A5,5,0,0,1,-58.144,81.359A100,100,0,0,0,95.949,28.173A5,5,0,0,1,101.925,24.723Z" fill="#c3b550" stroke="white" stroke-width="0.8"/><path d="M-176.737,210.627A5,5,0,0,1,-183.851,211.185A280,280,0,0,1,-87.74,-265.898A5,5,0,0,1,-81.397,-262.63L-60.67,-195.753A5,5,0,0,1,-63.85,-189.534A200,200,0,0,0,-132.256,150.028A5,5,0,0,1,-131.732,156.992Z" fill="#9ab2d4" stroke="white" stroke-width="0.5"/><path d="M-78.24,-263.588A5,5,0,0,1,-74.782,-269.829A280,280,0,0,1,26.516,-278.742A5,5,0,0,1,31.011,-273.2L23.114,-203.631A5,5,0,0,1,17.703,-199.215A200,200,0,0,0,-52.218,-193.063A5,5,0,0,1,-58.317,-196.467Z" fill="#9393c9" stroke="white" stroke-width="0.5"/><path d="M34.287,-272.808A5,5,0,0,1,39.961,-277.134A280,280,0,0,1,274.973,52.82A5,5,0,0,1,269.03,56.769L200.523,42.313A5,5,0,0,1,196.64,36.508A200,200,0,0,0,29.773,-197.772A5,5,0,0,1,25.556,-203.339Z" fill="#514a8d" stroke="white" stroke-width="0.5"/><path d="M267.206,64.813A5,5,0,0,1,270.865,70.939A280,280,0,0,1,-92.908,264.136A5,5,0,0,1,-95.935,257.675L-71.506,192.06A5,5,0,0,1,-65.19,189.077A200,200,0,0,0,193.156,51.871A5,5,0,0,1,199.164,48.309Z" fill="#ab8b58" stroke="white" stroke-width="0.5"/><path d="M-100.326,259.889A1.415,1.415,0,1,1,-102.961,258.857L-74.294,186.785A1.021,1.021,0,0,1,-72.393,187.53Z" fill="#5c3f4b" stroke="white" stroke-width="0.5"/><path d="M-104.988,255A4.201,4.201,0,1,1,-112.707,251.683L-82.995,185.335A3.094,3.094,0,0,1,-77.311,187.778Z" fill="#5c3f4b" stroke="white" stroke-width="0.5"/><path d="M-115.915,250.737A3.741,3.741,0,1,1,-122.662,247.506L-90.021,181.643A2.745,2.745,0,0,1,-85.069,184.014Z" fill="#5c3f4b" stroke="white" stroke-width="0.5"/><path d="M-126.049,246.851A2.815,2.815,0,1,1,-131.037,244.24L-95.518,178.037A2.052,2.052,0,0,1,-91.883,179.94Z" fill="#5c3f4b" stroke="white" stroke-width="0.5"/><path d="M-134.412,243.472A1.883,1.883,0,1,1,-137.697,241.63L-99.696,174.946A1.363,1.363,0,0,1,-97.318,176.28Z" fill="#5c3f4b" stroke="white" stroke-width="0.5"/><path d="M-140.586,239.96A1.883,1.883,0,1,1,-143.823,238.035L-104.131,172.343A1.363,1.363,0,0,1,-101.788,173.737Z" fill="#5c3f4b" stroke="white" stroke-width="0.5"/><path d="M-146.917,236.692A1.415,1.415,0,1,1,-149.313,235.188L-107.741,169.706A1.021,1.021,0,0,1,-106.012,170.792Z" fill="#5c3f4b" stroke="white" stroke-width="0.5"/><path d="M-152.383,233.775A0.945,0.945,0,1,1,-153.962,232.738L-110.72,167.37A0.679,0.679,0,0,1,-109.584,168.116Z" fill="#5c3f4b" stroke="white" stroke-width="0.5"/><path d="M-156.743,230.873A0.945,0.945,0,1,1,-158.303,229.807L-113.842,165.263A0.679,0.679,0,0,1,-112.72,166.03Z" fill="#5c3f4b" stroke="white" stroke-width="0.5"/><path d="M-161.049,227.891A0.945,0.945,0,1,1,-162.588,226.795L-116.924,163.097A0.679,0.679,0,0,1,-115.817,163.885Z" fill="#5c3f4b" stroke="white" stroke-width="0.5"/><path d="M-165.578,225.209A0.473,0.473,0,1,1,-166.34,224.647L-119.217,161.006A0.339,0.339,0,0,1,-118.671,161.409Z" fill="#5c3f4b" stroke="white" stroke-width="0.5"/><path d="M-169.023,222.635A0.473,0.473,0,1,1,-169.776,222.061L-121.68,159.153A0.339,0.339,0,0,1,-121.14,159.564Z" fill="#5c3f4b" stroke="white" stroke-width="0.5"/><path d="M-172.429,220.008A0.473,0.473,0,1,1,-173.172,219.423L-124.114,157.262A0.339,0.339,0,0,1,-123.581,157.681Z" fill="#5c3f4b" stroke="white" stroke-width="0.5"/><path d="M-202.453,241.274A5,5,0,0,1,-209.557,241.838A320,320,0,0,1,-228.437,224.09A5,5,0,0,1,-228.312,216.964L-221.063,210.075A5,5,0,0,1,-214.051,210.196A300,300,0,0,0,-196.578,226.621A5,5,0,0,1,-196.024,233.612Z" fill="rgb(189, 205, 227)" stroke="white" stroke-width="0.4"/><path d="M-228.746,216.507A5,5,0,0,1,-235.868,216.255A320,320,0,0,1,-280.67,153.702A5,5,0,0,1,-278.617,146.877L-269.769,142.213A5,5,0,0,1,-263.053,144.232A300,300,0,0,0,-221.232,202.624A5,5,0,0,1,-221.482,209.632Z" fill="rgb(189, 205, 227)" stroke="white" stroke-width="0.4"/><path d="M-278.91,146.319A5,5,0,0,1,-285.697,144.144A320,320,0,0,1,-318.548,30.453A5,5,0,0,1,-313.967,24.993L-303.997,24.199A5,5,0,0,1,-298.624,28.705A300,300,0,0,0,-267.911,134.996A5,5,0,0,1,-270.053,141.673Z" fill="rgb(189, 205, 227)" stroke="white" stroke-width="0.4"/><path d="M-314.016,24.365A5,5,0,0,1,-319.394,19.688A320,320,0,0,1,-269.646,-172.311A5,5,0,0,1,-262.674,-173.789L-254.333,-168.27A5,5,0,0,1,-252.877,-161.41A300,300,0,0,0,-299.441,18.301A5,5,0,0,1,-304.045,23.591Z" fill="rgb(189, 205, 227)" stroke="white" stroke-width="0.4"/><path d="M-262.325,-174.314A5,5,0,0,1,-263.678,-181.311A320,320,0,0,1,-99.572,-304.114A5,5,0,0,1,-93.241,-300.842L-90.28,-291.289A5,5,0,0,1,-93.497,-285.058A300,300,0,0,0,-247.11,-170.108A5,5,0,0,1,-253.996,-168.779Z" fill="rgb(189, 205, 227)" stroke="white" stroke-width="0.4"/><path d="M-89.624,-301.94A5,5,0,0,1,-86.177,-308.178A320,320,0,0,1,31.04,-318.491A5,5,0,0,1,35.523,-312.951L34.395,-303.013A5,5,0,0,1,28.944,-298.6A300,300,0,0,0,-80.641,-288.959A5,5,0,0,1,-86.778,-292.352Z" fill="rgb(185, 185, 220)" stroke="white" stroke-width="0.4"/><path d="M39.276,-312.502A5,5,0,0,1,44.939,-316.829A320,320,0,0,1,236.352,-215.726A5,5,0,0,1,235.971,-208.609L228.478,-201.985A5,5,0,0,1,221.475,-202.358A300,300,0,0,0,42.285,-297.005A5,5,0,0,1,38.028,-302.579Z" fill="rgb(142, 137, 181)" stroke="white" stroke-width="0.4"/><path d="M236.388,-208.137A5,5,0,0,1,243.496,-207.628A320,320,0,0,1,259.525,-187.208A5,5,0,0,1,258.33,-180.181L250.127,-174.46A5,5,0,0,1,243.213,-175.634A300,300,0,0,0,228.379,-194.533A5,5,0,0,1,228.881,-201.527Z" fill="rgb(142, 137, 181)" stroke="white" stroke-width="0.4"/><path d="M258.69,-179.664A5,5,0,0,1,265.694,-178.344A320,320,0,0,1,269.723,-172.19A5,5,0,0,1,268.132,-165.243L259.618,-159.995A5,5,0,0,1,252.782,-161.559A300,300,0,0,0,249.175,-167.068A5,5,0,0,1,250.476,-173.959Z" fill="rgb(142, 137, 181)" stroke="white" stroke-width="0.4"/><path d="M268.591,-164.785A4.851,4.851,0,1,1,273.536,-156.438L264.459,-151.247A4.69,4.69,0,0,1,259.678,-159.317Z" fill="rgb(142, 137, 181)" stroke="white" stroke-width="0.4"/><path d="M274.787,-156.425A3.786,3.786,0,1,1,278.454,-149.801L267.378,-143.842A3.636,3.636,0,0,1,263.857,-150.203Z" fill="rgb(142, 137, 181)" stroke="white" stroke-width="0.4"/><path d="M279.23,-149.499A3.251,3.251,0,1,1,282.24,-143.736L270.087,-137.547A3.111,3.111,0,0,1,267.207,-143.062Z" fill="rgb(142, 137, 181)" stroke="white" stroke-width="0.4"/><path d="M282.527,-143.172A3.251,3.251,0,1,1,285.406,-137.343L273.117,-131.429A3.111,3.111,0,0,1,270.362,-137.007Z" fill="rgb(142, 137, 181)" stroke="white" stroke-width="0.4"/><path d="M285.68,-136.771A3.251,3.251,0,1,1,288.427,-130.879L276.008,-125.244A3.111,3.111,0,0,1,273.379,-130.882Z" fill="rgb(142, 137, 181)" stroke="white" stroke-width="0.4"/><path d="M289.182,-130.525A2.714,2.714,0,1,1,291.373,-125.56L277.875,-119.743A2.588,2.588,0,0,1,275.786,-124.478Z" fill="rgb(142, 137, 181)" stroke="white" stroke-width="0.4"/><path d="M291.623,-124.977A2.714,2.714,0,1,1,293.718,-119.97L280.112,-114.413A2.588,2.588,0,0,1,278.114,-119.187Z" fill="rgb(142, 137, 181)" stroke="white" stroke-width="0.4"/><path d="M293.958,-119.383A2.714,2.714,0,1,1,295.957,-114.337L282.246,-109.041A2.588,2.588,0,0,1,280.34,-113.852Z" fill="rgb(142, 137, 181)" stroke="white" stroke-width="0.4"/><path d="M296.185,-113.745A2.714,2.714,0,1,1,298.087,-108.662L284.278,-103.629A2.588,2.588,0,0,1,282.464,-108.476Z" fill="rgb(142, 137, 181)" stroke="white" stroke-width="0.4"/><path d="M298.304,-108.066A2.714,2.714,0,1,1,300.108,-102.948L286.206,-98.179A2.588,2.588,0,0,1,284.484,-103.06Z" fill="rgb(142, 137, 181)" stroke="white" stroke-width="0.4"/><path d="M300.314,-102.348A2.714,2.714,0,1,1,302.02,-97.196L288.029,-92.693A2.588,2.588,0,0,1,286.401,-97.606Z" fill="rgb(142, 137, 181)" stroke="white" stroke-width="0.4"/><path d="M302.214,-96.592A2.714,2.714,0,1,1,303.822,-91.408L289.747,-87.174A2.588,2.588,0,0,1,288.214,-92.117Z" fill="rgb(142, 137, 181)" stroke="white" stroke-width="0.4"/><path d="M304.004,-90.8A2.714,2.714,0,1,1,305.513,-85.587L291.36,-81.622A2.588,2.588,0,0,1,289.921,-86.594Z" fill="rgb(142, 137, 181)" stroke="white" stroke-width="0.4"/><path d="M305.683,-84.976A2.714,2.714,0,1,1,307.092,-79.735L292.866,-76.041A2.588,2.588,0,0,1,291.522,-81.04Z" fill="rgb(142, 137, 181)" stroke="white" stroke-width="0.4"/><path d="M307.777,-79.256A2.175,2.175,0,1,1,308.833,-75.037L293.52,-71.317A2.067,2.067,0,0,1,292.517,-75.327Z" fill="rgb(142, 137, 181)" stroke="white" stroke-width="0.4"/><path d="M308.982,-74.42A2.175,2.175,0,1,1,309.972,-70.185L294.602,-66.705A2.067,2.067,0,0,1,293.662,-70.73Z" fill="rgb(142, 137, 181)" stroke="white" stroke-width="0.4"/><path d="M310.111,-69.564A2.175,2.175,0,1,1,311.034,-65.314L295.612,-62.076A2.067,2.067,0,0,1,294.735,-66.115Z" fill="rgb(142, 137, 181)" stroke="white" stroke-width="0.4"/><path d="M311.164,-64.692A2.175,2.175,0,1,1,312.02,-60.428L296.549,-57.432A2.067,2.067,0,0,1,295.736,-61.485Z" fill="rgb(142, 137, 181)" stroke="white" stroke-width="0.4"/><path d="M312.141,-59.804A2.175,2.175,0,1,1,312.93,-55.527L297.414,-52.774A2.067,2.067,0,0,1,296.664,-56.839Z" fill="rgb(142, 137, 181)" stroke="white" stroke-width="0.4"/><path d="M313.04,-54.901A2.175,2.175,0,1,1,313.762,-50.613L298.205,-48.103A2.067,2.067,0,0,1,297.519,-52.179Z" fill="rgb(142, 137, 181)" stroke="white" stroke-width="0.4"/><path d="M313.863,-49.985A2.175,2.175,0,1,1,314.517,-45.686L298.923,-43.42A2.067,2.067,0,0,1,298.3,-47.507Z" fill="rgb(142, 137, 181)" stroke="white" stroke-width="0.4"/><path d="M314.608,-45.056A2.175,2.175,0,1,1,315.195,-40.747L299.567,-38.727A2.067,2.067,0,0,1,299.009,-42.822Z" fill="rgb(142, 137, 181)" stroke="white" stroke-width="0.4"/><path d="M315.276,-40.117A2.175,2.175,0,1,1,315.795,-35.799L300.137,-34.024A2.067,2.067,0,0,1,299.644,-38.128Z" fill="rgb(142, 137, 181)" stroke="white" stroke-width="0.4"/><path d="M315.866,-35.167A2.175,2.175,0,1,1,316.318,-30.842L300.634,-29.312A2.067,2.067,0,0,1,300.205,-33.423Z" fill="rgb(142, 137, 181)" stroke="white" stroke-width="0.4"/><path d="M316.379,-30.209A2.175,2.175,0,1,1,316.763,-25.877L301.057,-24.594A2.067,2.067,0,0,1,300.692,-28.711Z" fill="rgb(142, 137, 181)" stroke="white" stroke-width="0.4"/><path d="M316.814,-25.243A2.175,2.175,0,1,1,317.13,-20.906L301.405,-19.869A2.067,2.067,0,0,1,301.105,-23.992Z" fill="rgb(142, 137, 181)" stroke="white" stroke-width="0.4"/><path d="M317.171,-20.271A2.175,2.175,0,1,1,317.419,-15.929L301.68,-15.14A2.067,2.067,0,0,1,301.445,-19.266Z" fill="rgb(142, 137, 181)" stroke="white" stroke-width="0.4"/><path d="M317.45,-15.294A2.175,2.175,0,1,1,317.629,-10.949L301.88,-10.406A2.067,2.067,0,0,1,301.71,-14.536Z" fill="rgb(142, 137, 181)" stroke="white" stroke-width="0.4"/><path d="M317.651,-10.314A2.175,2.175,0,1,1,317.762,-5.966L302.006,-5.67A2.067,2.067,0,0,1,301.901,-9.802Z" fill="rgb(142, 137, 181)" stroke="white" stroke-width="0.4"/><path d="M317.773,-5.331A2.175,2.175,0,1,1,317.816,-0.982L302.058,-0.933A2.067,2.067,0,0,1,302.017,-5.066Z" fill="rgb(142, 137, 181)" stroke="white" stroke-width="0.4"/><path d="M318.362,-0.347A1.634,1.634,0,1,1,318.349,2.921L301.531,2.766A1.547,1.547,0,0,1,301.543,-0.329Z" fill="rgb(142, 137, 181)" stroke="white" stroke-width="0.4"/><path d="M318.342,3.557A1.634,1.634,0,1,1,318.289,6.824L301.474,6.464A1.547,1.547,0,0,1,301.525,3.369Z" fill="rgb(142, 137, 181)" stroke="white" stroke-width="0.4"/><path d="M318.275,7.461A1.634,1.634,0,1,1,318.181,10.727L301.372,10.16A1.547,1.547,0,0,1,301.461,7.067Z" fill="rgb(142, 137, 181)" stroke="white" stroke-width="0.4"/><path d="M318.159,11.363A1.634,1.634,0,1,1,318.026,14.628L301.225,13.855A1.547,1.547,0,0,1,301.351,10.763Z" fill="rgb(142, 137, 181)" stroke="white" stroke-width="0.4"/><path d="M317.996,15.264A1.634,1.634,0,1,1,317.823,18.527L301.032,17.548A1.547,1.547,0,0,1,301.197,14.457Z" fill="rgb(142, 137, 181)" stroke="white" stroke-width="0.4"/><path d="M317.785,19.162A1.634,1.634,0,1,1,317.571,22.423L300.795,21.238A1.547,1.547,0,0,1,300.997,18.15Z" fill="rgb(142, 137, 181)" stroke="white" stroke-width="0.4"/><path d="M317.526,23.058A1.634,1.634,0,1,1,317.273,26.315L300.512,24.925A1.547,1.547,0,0,1,300.752,21.84Z" fill="rgb(142, 137, 181)" stroke="white" stroke-width="0.4"/><path d="M317.219,26.95A1.634,1.634,0,1,1,316.926,30.204L300.183,28.608A1.547,1.547,0,0,1,300.461,25.526Z" fill="rgb(142, 137, 181)" stroke="white" stroke-width="0.4"/><path d="M316.865,30.838A1.634,1.634,0,1,1,316.532,34.088L299.81,32.287A1.547,1.547,0,0,1,300.125,29.209Z" fill="rgb(142, 137, 181)" stroke="white" stroke-width="0.4"/><path d="M316.463,34.721A1.634,1.634,0,1,1,316.09,37.967L299.391,35.961A1.547,1.547,0,0,1,299.745,32.887Z" fill="rgb(142, 137, 181)" stroke="white" stroke-width="0.4"/><path d="M316.013,38.599A1.634,1.634,0,1,1,315.601,41.84L298.928,39.63A1.547,1.547,0,0,1,299.319,36.56Z" fill="rgb(142, 137, 181)" stroke="white" stroke-width="0.4"/><path d="M315.516,42.471A1.634,1.634,0,1,1,315.064,45.707L298.419,43.293A1.547,1.547,0,0,1,298.848,40.228Z" fill="rgb(142, 137, 181)" stroke="white" stroke-width="0.4"/><path d="M315.511,46.417A1.091,1.091,0,1,1,315.186,48.574L297.516,45.851A1.03,1.03,0,0,1,297.822,43.814Z" fill="rgb(142, 137, 181)" stroke="white" stroke-width="0.4"/><path d="M315.088,49.205A1.091,1.091,0,1,1,314.744,51.359L297.099,48.48A1.03,1.03,0,0,1,297.423,46.446Z" fill="rgb(142, 137, 181)" stroke="white" stroke-width="0.4"/><path d="M314.641,51.989A1.091,1.091,0,1,1,314.278,54.14L296.658,51.105A1.03,1.03,0,0,1,297.001,49.074Z" fill="rgb(142, 137, 181)" stroke="white" stroke-width="0.4"/><path d="M314.169,54.769A1.091,1.091,0,1,1,313.787,56.917L296.195,53.726A1.03,1.03,0,0,1,296.556,51.698Z" fill="rgb(142, 137, 181)" stroke="white" stroke-width="0.4"/><path d="M313.672,57.544A1.091,1.091,0,1,1,313.271,59.689L295.708,56.343A1.03,1.03,0,0,1,296.087,54.318Z" fill="rgb(142, 137, 181)" stroke="white" stroke-width="0.4"/><path d="M313.151,60.316A1.091,1.091,0,1,1,312.731,62.457L295.199,58.955A1.03,1.03,0,0,1,295.595,56.934Z" fill="rgb(142, 137, 181)" stroke="white" stroke-width="0.4"/><path d="M313.141,63.19A0.546,0.546,0,1,1,312.923,64.261L294.371,60.451A0.514,0.514,0,0,1,294.576,59.444Z" fill="rgb(142, 137, 181)" stroke="white" stroke-width="0.4"/><path d="M312.794,64.887A0.546,0.546,0,1,1,312.57,65.957L294.039,62.046A0.514,0.514,0,0,1,294.249,61.04Z" fill="rgb(142, 137, 181)" stroke="white" stroke-width="0.4"/><path d="M306.085,74.244A5,5,0,0,1,309.746,80.358A320,320,0,0,1,62.885,313.76A5,5,0,0,1,56.985,309.762L55.175,299.926A5,5,0,0,1,59.108,294.119A300,300,0,0,0,290.348,75.487A5,5,0,0,1,296.365,71.886Z" fill="rgb(200, 180, 146)" stroke="white" stroke-width="0.4"/><path d="M56.365,309.876A5,5,0,0,1,52.263,315.703A320,320,0,0,1,-36.337,317.93A5,5,0,0,1,-40.727,312.316L-39.434,302.399A5,5,0,0,1,-33.91,298.077A300,300,0,0,0,48.842,295.997A5,5,0,0,1,54.575,300.036Z" fill="rgb(200, 180, 146)" stroke="white" stroke-width="0.4"/><path d="M-41.351,312.234A5,5,0,0,1,-47.043,316.523A320,320,0,0,1,-92.778,306.255A5,5,0,0,1,-96.09,299.945L-93.038,290.42A5,5,0,0,1,-86.83,287.16A300,300,0,0,0,-44.257,296.718A5,5,0,0,1,-40.038,302.319Z" fill="rgb(200, 180, 146)" stroke="white" stroke-width="0.4"/><path d="M-97.086,300.982A3.725,3.725,0,1,1,-104.149,298.612L-99.967,286.622A3.576,3.576,0,0,1,-93.188,288.897Z" fill="rgb(200, 180, 146)" stroke="white" stroke-width="0.4"/><path d="M-105.453,300.418A1.607,1.607,0,1,1,-108.48,299.338L-102.732,283.477A1.522,1.522,0,0,1,-99.865,284.5Z" fill="rgb(200, 180, 146)" stroke="white" stroke-width="0.4"/><path d="M-109.263,299.624A1.073,1.073,0,1,1,-111.277,298.882L-105.026,282.094A1.013,1.013,0,0,1,-103.125,282.795Z" fill="rgb(200, 180, 146)" stroke="white" stroke-width="0.4"/><path d="M-114.93,297.718A0.868,0.868,0,1,1,-116.547,297.089L-109.858,280.039A0.818,0.818,0,0,1,-108.334,280.632Z" fill="rgb(149, 130, 138)" stroke="white" stroke-width="0.4"/><path d="M-117.3,297.259A0.434,0.434,0,1,1,-118.108,296.939L-111.027,279.138A0.408,0.408,0,0,1,-110.268,279.439Z" fill="rgb(149, 130, 138)" stroke="white" stroke-width="0.4"/><path d="M-119.986,291.428A4.801,4.801,0,1,1,-128.808,287.638L-124.493,278.003A4.641,4.641,0,0,1,-115.967,281.667Z" fill="rgb(149, 130, 138)" stroke="white" stroke-width="0.4"/><path d="M-132.474,286.556A4.275,4.275,0,1,1,-140.185,282.864L-135.032,272.465A4.118,4.118,0,0,1,-127.604,276.022Z" fill="rgb(149, 130, 138)" stroke="white" stroke-width="0.4"/><path d="M-144.056,282.115A3.217,3.217,0,1,1,-149.756,279.131L-143.277,267.055A3.078,3.078,0,0,1,-137.824,269.91Z" fill="rgb(149, 130, 138)" stroke="white" stroke-width="0.4"/><path d="M-153.614,278.254A2.152,2.152,0,1,1,-157.368,276.149L-149.544,262.419A2.045,2.045,0,0,1,-145.977,264.42Z" fill="rgb(149, 130, 138)" stroke="white" stroke-width="0.4"/><path d="M-160.67,274.24A2.152,2.152,0,1,1,-164.369,272.04L-156.197,258.514A2.045,2.045,0,0,1,-152.682,260.606Z" fill="rgb(149, 130, 138)" stroke="white" stroke-width="0.4"/><path d="M-167.905,270.505A1.617,1.617,0,1,1,-170.644,268.786L-161.612,254.559A1.531,1.531,0,0,1,-159.018,256.187Z" fill="rgb(149, 130, 138)" stroke="white" stroke-width="0.4"/><path d="M-174.151,267.171A1.08,1.08,0,1,1,-175.956,265.986L-166.08,251.056A1.019,1.019,0,0,1,-164.376,252.174Z" fill="rgb(149, 130, 138)" stroke="white" stroke-width="0.4"/><path d="M-179.135,263.855A1.08,1.08,0,1,1,-180.918,262.636L-170.763,247.894A1.019,1.019,0,0,1,-169.08,249.045Z" fill="rgb(149, 130, 138)" stroke="white" stroke-width="0.4"/><path d="M-184.056,260.446A1.08,1.08,0,1,1,-185.815,259.194L-175.385,244.645A1.019,1.019,0,0,1,-173.725,245.827Z" fill="rgb(149, 130, 138)" stroke="white" stroke-width="0.4"/><path d="M-189.232,257.381A0.541,0.541,0,1,1,-190.103,256.739L-178.825,241.509A0.509,0.509,0,0,1,-178.007,242.113Z" fill="rgb(149, 130, 138)" stroke="white" stroke-width="0.4"/><path d="M-193.17,254.439A0.541,0.541,0,1,1,-194.03,253.784L-182.52,238.729A0.509,0.509,0,0,1,-181.711,239.346Z" fill="rgb(149, 130, 138)" stroke="white" stroke-width="0.4"/><path d="M-197.061,251.437A0.541,0.541,0,1,1,-197.911,250.769L-186.171,235.893A0.509,0.509,0,0,1,-185.371,236.522Z" fill="rgb(149, 130, 138)" stroke="white" stroke-width="0.4"/></g><g class="labels"><text text-anchor="middle" font-size="31px" font-weight="bold" fill="#555"><tspan x="0" dy="-1.0em">Dataset</tspan><tspan x="0" dy="1.2em">Diversity</tspan><tspan x="0" dy="1.2em">n=1695</tspan></text><text font-size="43px" font-weight="bold" fill="white" font-style="normal"><textPath href="#arc-0" startOffset="50%" text-anchor="middle" dominant-baseline="central">Monocot (1150)</textPath></text><text font-size="43px" font-weight="bold" fill="white" font-style="normal"><textPath href="#arc-1" startOffset="50%" text-anchor="middle" dominant-baseline="central">Dicot (545)</textPath></text><text font-size="31px" font-weight="normal" fill="white" font-style="normal"><textPath href="#arc-2" startOffset="50%" text-anchor="middle" dominant-baseline="central">Rice</textPath></text><text font-size="31px" font-weight="normal" fill="white" font-style="normal"><textPath href="#arc-3" startOffset="50%" text-anchor="middle" dominant-baseline="central">Millet</textPath></text><text font-size="31px" font-weight="normal" fill="white" font-style="normal"><textPath href="#arc-4" startOffset="50%" text-anchor="middle" dominant-baseline="central">Sorghum</textPath></text><text font-size="31px" font-weight="normal" fill="white" font-style="normal"><textPath href="#arc-5" startOffset="50%" text-anchor="middle" dominant-baseline="central">S. lycopersicum</textPath></text><text transform="rotate(155.49844762797252) translate(555,0) rotate(180)" text-anchor="end" dy="0.35em" font-size="31px" fill="#333" font-style="italic">wox10-50</text><text transform="rotate(159.44549021665154) translate(555,0) rotate(180)" text-anchor="end" dy="0.35em" font-size="31px" fill="#333" font-style="italic">wox10-15</text><text transform="rotate(163.39253280533055) translate(555,0) rotate(180)" text-anchor="end" dy="0.35em" font-size="31px" fill="#333" font-style="italic">psy1-9</text><text transform="rotate(194.52623484197727) translate(555,0) rotate(180)" text-anchor="end" dy="0.35em" font-size="31px" fill="#333" font-style="normal">Kittake</text><text transform="rotate(233.19197942212776) translate(555,0) rotate(180)" text-anchor="end" dy="0.35em" font-size="31px" fill="#333" font-style="italic">psy1-17</text><text transform="rotate(260.7522999679106) translate(555,0) rotate(180)" text-anchor="end" dy="0.35em" font-size="31px" fill="#333" font-style="normal">AW23</text><text transform="rotate(264.6993425565896) translate(555,0) rotate(180)" text-anchor="end" dy="0.35em" font-size="31px" fill="#333" font-style="normal">Teshale</text><text transform="rotate(269.2381659217814) translate(555,0) rotate(180)" text-anchor="end" dy="0.35em" font-size="31px" fill="#333" font-style="normal">SQR</text><text transform="rotate(-86.35116952081987) translate(555,0) rotate(0)" text-anchor="start" dy="0.35em" font-size="31px" fill="#333" font-style="normal">SRN</text><text transform="rotate(-82.06809398093411) translate(555,0) rotate(0)" text-anchor="start" dy="0.35em" font-size="31px" fill="#333" font-style="normal">ETSL 100016</text><text transform="rotate(-77.91179851776377) translate(555,0) rotate(0)" text-anchor="start" dy="0.35em" font-size="31px" fill="#333" font-style="normal">ETSL 101865</text><text transform="rotate(-73.88119539376314) translate(555,0) rotate(0)" text-anchor="start" dy="0.35em" font-size="31px" fill="#333" font-style="normal">A2267-2</text><text transform="rotate(-69.97487579693612) translate(555,0) rotate(0)" text-anchor="start" dy="0.35em" font-size="31px" fill="#333" font-style="normal">IS 38343</text><text transform="rotate(-66.1910685877404) translate(555,0) rotate(0)" text-anchor="start" dy="0.35em" font-size="31px" fill="#333" font-style="normal">ETSL 101728</text><text transform="rotate(-62.5276033159282) translate(555,0) rotate(0)" text-anchor="start" dy="0.35em" font-size="31px" fill="#333" font-style="normal">ETSL 100308</text><text transform="rotate(-58.98188004992912) translate(555,0) rotate(0)" text-anchor="start" dy="0.35em" font-size="31px" fill="#333" font-style="normal">ETSL 101847</text><text transform="rotate(-55.55084770022342) translate(555,0) rotate(0)" text-anchor="start" dy="0.35em" font-size="31px" fill="#333" font-style="normal">ETSL 101844</text><text transform="rotate(-52.2309916317678) translate(555,0) rotate(0)" text-anchor="start" dy="0.35em" font-size="31px" fill="#333" font-style="normal">ETSL 101845</text><text transform="rotate(-49.01833055954527) translate(555,0) rotate(0)" text-anchor="start" dy="0.35em" font-size="31px" fill="#333" font-style="normal">Gobiye</text><text transform="rotate(-45.908422080812635) translate(555,0) rotate(0)" text-anchor="start" dy="0.35em" font-size="31px" fill="#333" font-style="normal">Framida</text><text transform="rotate(-42.896375753845675) translate(555,0) rotate(0)" text-anchor="start" dy="0.35em" font-size="31px" fill="#333" font-style="normal">S35</text><text transform="rotate(-39.97687238767449) translate(555,0) rotate(0)" text-anchor="start" dy="0.35em" font-size="31px" fill="#333" font-style="normal">Melkam</text><text transform="rotate(-37.144188136708564) translate(555,0) rotate(0)" text-anchor="start" dy="0.35em" font-size="31px" fill="#333" font-style="normal">IS 38408</text><text transform="rotate(-34.392222059596406) translate(555,0) rotate(0)" text-anchor="start" dy="0.35em" font-size="31px" fill="#333" font-style="normal">ETSL 101851</text><text transform="rotate(-31.714525959270738) translate(555,0) rotate(0)" text-anchor="start" dy="0.35em" font-size="31px" fill="#333" font-style="normal">ETSL 101862</text><text transform="rotate(-29.104335529285024) translate(555,0) rotate(0)" text-anchor="start" dy="0.35em" font-size="31px" fill="#333" font-style="normal">ETSL 101866</text><text transform="rotate(-26.554602055593428) translate(555,0) rotate(0)" text-anchor="start" dy="0.35em" font-size="31px" fill="#333" font-style="normal">SRN39</text><text transform="rotate(-24.058024137295675) translate(555,0) rotate(0)" text-anchor="start" dy="0.35em" font-size="31px" fill="#333" font-style="normal">Dekeba</text><text transform="rotate(-21.607079078179666) translate(555,0) rotate(0)" text-anchor="start" dy="0.35em" font-size="31px" fill="#333" font-style="normal">Macia</text><text transform="rotate(-19.19405375479154) translate(555,0) rotate(0)" text-anchor="start" dy="0.35em" font-size="31px" fill="#333" font-style="normal">ETSL 100143</text><text transform="rotate(-16.81107488407713) translate(555,0) rotate(0)" text-anchor="start" dy="0.35em" font-size="31px" fill="#333" font-style="normal">ETSL 100316</text><text transform="rotate(-14.45013869644086) translate(555,0) rotate(0)" text-anchor="start" dy="0.35em" font-size="31px" fill="#333" font-style="normal">ETSL 100309</text><text transform="rotate(-12.103140072904466) translate(555,0) rotate(0)" text-anchor="start" dy="0.35em" font-size="31px" fill="#333" font-style="normal">ETWS 91323</text><text transform="rotate(-9.761901233534275) translate(555,0) rotate(0)" text-anchor="start" dy="0.35em" font-size="31px" fill="#333" font-style="normal">IS 38306</text><text transform="rotate(-7.4182000741493965) translate(555,0) rotate(0)" text-anchor="start" dy="0.35em" font-size="31px" fill="#333" font-style="normal">ETSL 100726</text><text transform="rotate(-5.063798244696798) translate(555,0) rotate(0)" text-anchor="start" dy="0.35em" font-size="31px" fill="#333" font-style="normal">235464</text><text transform="rotate(-2.6904690499291206) translate(555,0) rotate(0)" text-anchor="start" dy="0.35em" font-size="31px" fill="#333" font-style="normal">235761</text><text transform="rotate(-0.2900252345677785) translate(555,0) rotate(0)" text-anchor="start" dy="0.35em" font-size="31px" fill="#333" font-style="normal">235921</text><text transform="rotate(2.1456533064670964) translate(555,0) rotate(0)" text-anchor="start" dy="0.35em" font-size="31px" fill="#333" font-style="normal">235925</text><text transform="rotate(4.624591875107967) translate(555,0) rotate(0)" text-anchor="start" dy="0.35em" font-size="31px" fill="#333" font-style="normal">ETSL 100312</text><text transform="rotate(7.154693379848354) translate(555,0) rotate(0)" text-anchor="start" dy="0.35em" font-size="31px" fill="#333" font-style="normal">ETSL 101888</text><text transform="rotate(9.74371083579716) translate(555,0) rotate(0)" text-anchor="start" dy="0.35em" font-size="31px" fill="#333" font-style="normal">ETSL 101857</text><text transform="rotate(12.399220003857053) translate(555,0) rotate(0)" text-anchor="start" dy="0.35em" font-size="31px" fill="#333" font-style="normal">2005MI5064</text><text transform="rotate(15.12859223734307) translate(555,0) rotate(0)" text-anchor="start" dy="0.35em" font-size="31px" fill="#333" font-style="normal">ETSL 100046</text><text transform="rotate(17.93896762212954) translate(555,0) rotate(0)" text-anchor="start" dy="0.35em" font-size="31px" fill="#333" font-style="normal">ETSL 100307</text><text transform="rotate(20.83722851226132) translate(555,0) rotate(0)" text-anchor="start" dy="0.35em" font-size="31px" fill="#333" font-style="normal">ETWS 90754</text><text transform="rotate(23.829973576756018) translate(555,0) rotate(0)" text-anchor="start" dy="0.35em" font-size="31px" fill="#333" font-style="normal">ETWS 90787</text><text transform="rotate(26.923492484939445) translate(555,0) rotate(0)" text-anchor="start" dy="0.35em" font-size="31px" fill="#333" font-style="normal">ETWS 91242</text><text transform="rotate(30.123741366977583) translate(555,0) rotate(0)" text-anchor="start" dy="0.35em" font-size="31px" fill="#333" font-style="normal">ETSL 101295</text><text transform="rotate(33.43631919319125) translate(555,0) rotate(0)" text-anchor="start" dy="0.35em" font-size="31px" fill="#333" font-style="normal">235467</text><text transform="rotate(36.86644522017258) translate(555,0) rotate(0)" text-anchor="start" dy="0.35em" font-size="31px" fill="#333" font-style="normal">235763</text><text transform="rotate(40.418937653592394) translate(555,0) rotate(0)" text-anchor="start" dy="0.35em" font-size="31px" fill="#333" font-style="normal">ETSL 100305</text><text transform="rotate(44.09819367686154) translate(555,0) rotate(0)" text-anchor="start" dy="0.35em" font-size="31px" fill="#333" font-style="normal">ETSL 101843</text><text transform="rotate(47.908170991478926) translate(555,0) rotate(0)" text-anchor="start" dy="0.35em" font-size="31px" fill="#333" font-style="normal">NTJ2</text><text transform="rotate(51.85237100901088) translate(555,0) rotate(0)" text-anchor="start" dy="0.35em" font-size="31px" fill="#333" font-style="normal">P9501B</text><text transform="rotate(55.93382382627908) translate(555,0) rotate(0)" text-anchor="start" dy="0.35em" font-size="31px" fill="#333" font-style="normal">ETSL 101853</text><text transform="rotate(60.15507510462618) translate(555,0) rotate(0)" text-anchor="start" dy="0.35em" font-size="31px" fill="#333" font-style="normal">Misikir</text><text transform="rotate(64.51817496124985) translate(555,0) rotate(0)" text-anchor="start" dy="0.35em" font-size="31px" fill="#333" font-style="normal">B35</text><text transform="rotate(69.02466896577292) translate(555,0) rotate(0)" text-anchor="start" dy="0.35em" font-size="31px" fill="#333" font-style="normal">IESV 23005DL</text><text transform="rotate(72.82676495554736) translate(555,0) rotate(0)" text-anchor="start" dy="0.35em" font-size="31px" fill="#333" font-style="normal">M82</text><text transform="rotate(80.67191704377845) translate(555,0) rotate(0)" text-anchor="start" dy="0.35em" font-size="31px" fill="#333" font-style="italic">slmyb92</text><text transform="rotate(84.61895963245746) translate(555,0) rotate(0)" text-anchor="start" dy="0.35em" font-size="31px" fill="#333" font-style="italic">slasft</text><text transform="rotate(88.56148749223286) translate(555,0) rotate(0)" text-anchor="start" dy="0.35em" font-size="31px" fill="#333" font-style="normal">LA0513</text><text transform="rotate(92.50188148101066) translate(555,0) rotate(180)" text-anchor="end" dy="0.35em" font-size="31px" fill="#333" font-style="normal">VF36</text><text transform="rotate(96.44032346101619) translate(555,0) rotate(180)" text-anchor="end" dy="0.35em" font-size="31px" fill="#333" font-style="normal">Cerasiforme</text><text transform="rotate(100.3770486887085) translate(555,0) rotate(180)" text-anchor="end" dy="0.35em" font-size="31px" fill="#333" font-style="normal">S. peruvianum, LA1777</text><text transform="rotate(104.31233937972843) translate(555,0) rotate(180)" text-anchor="end" dy="0.35em" font-size="31px" fill="#333" font-style="normal">S. peruvianum, LA0446</text><text transform="rotate(108.24651698935065) translate(555,0) rotate(180)" text-anchor="end" dy="0.35em" font-size="31px" fill="#333" font-style="normal">S. aethiopicum, PI424860</text><text transform="rotate(112.17993341959047) translate(555,0) rotate(180)" text-anchor="end" dy="0.35em" font-size="31px" fill="#333" font-style="normal">S. candidum, 994750097</text><text transform="rotate(116.11296139347914) translate(555,0) rotate(180)" text-anchor="end" dy="0.35em" font-size="31px" fill="#333" font-style="normal">S. insanum, INS1</text><text transform="rotate(120.04598425980146) translate(555,0) rotate(180)" text-anchor="end" dy="0.35em" font-size="31px" fill="#333" font-style="normal">S. cheesmaniae, LA1407</text><text transform="rotate(123.9793855071693) translate(555,0) rotate(180)" text-anchor="end" dy="0.35em" font-size="31px" fill="#333" font-style="normal">S. pimpinellifolium, LA1589</text><text transform="rotate(127.913538274258) translate(555,0) rotate(180)" text-anchor="end" dy="0.35em" font-size="31px" fill="#333" font-style="normal">S. quitoense, PI489701</text><text transform="rotate(131.8487951431373) translate(555,0) rotate(180)" text-anchor="end" dy="0.35em" font-size="31px" fill="#333" font-style="normal">S. habrochaites, LA1777</text><text transform="rotate(135.78547849488731) translate(555,0) rotate(180)" text-anchor="end" dy="0.35em" font-size="31px" fill="#333" font-style="normal">S. arcanum, LA2157</text><text transform="rotate(139.7238716913103) translate(555,0) rotate(180)" text-anchor="end" dy="0.35em" font-size="31px" fill="#333" font-style="normal">S. huaylasense, LA1364</text><text transform="rotate(143.6642113239534) translate(555,0) rotate(180)" text-anchor="end" dy="0.35em" font-size="31px" fill="#333" font-style="normal">S. anguivi, ANG1</text><text transform="rotate(147.60668074246234) translate(555,0) rotate(180)" text-anchor="end" dy="0.35em" font-size="31px" fill="#333" font-style="normal">S. abutiloides, Baker_Creek</text><text transform="rotate(151.55140503929348) translate(555,0) rotate(180)" text-anchor="end" dy="0.35em" font-size="31px" fill="#333" font-style="normal">S. violaceum, PI319855</text></g><defs><path id="arc-0" d="M -89.99026535611553,107.2462220366569 A 140,140 0 1,1 136.98349715519518,28.90538889433305"/><path id="arc-1" d="M -86.73286869896828,109.89726787890375 A 140,140 0 0,0 136.0548276060965,33.001270961515466"/><path id="arc-2" d="M -154.26902632476947,183.85066634855468 A 240,240 0 0,1 -71.04942536505938,-229.2421845021"/><path id="arc-3" d="M -68.29346967506808,-230.0782519051737 A 240,240 0 0,1 27.068402512284933,-238.4686595455112"/><path id="arc-4" d="M 29.9280088467577,-238.12667697355624 A 240,240 0 0,1 234.8288522660489,49.55209524742814"/><path id="arc-5" d="M -83.73887461641867,224.91732009335277 A 240,240 0 0,0 233.23684732473686,56.57360736259794"/></defs><g class="leaders"><line x1="-229.45095007357816" y1="244.08453763057656" x2="-491.37301881497694" y2="223.9476643786586" stroke="#777" stroke-width="1"/><circle cx="-229.45095007357816" cy="244.08453763057656" r="2.5" fill="#666"/><line x1="-272.35109737257994" y1="195.0637838245518" x2="-505.62283686416987" y2="189.59310863380307" stroke="#777" stroke-width="1"/><circle cx="-272.35109737257994" cy="195.0637838245518" r="2.5" fill="#666"/><line x1="-321.8339216913585" y1="92.99423019069802" x2="-517.4740800256259" y2="154.33916062241667" stroke="#777" stroke-width="1"/><circle cx="-321.8339216913585" cy="92.99423019069802" r="2.5" fill="#666"/><line x1="-324.2910194234659" y1="-84.02579795092252" x2="-522.737762652751" y2="-135.4445698313378" stroke="#777" stroke-width="1"/><circle cx="-324.2910194234659" cy="-84.02579795092252" r="2.5" fill="#666"/><line x1="-200.7104539459525" y1="-268.2169153442968" x2="-323.533269047207" y2="-432.3496545848366" stroke="#777" stroke-width="1"/><circle cx="-200.7104539459525" cy="-268.2169153442968" r="2.5" fill="#666"/><line x1="-29.36152174371921" y1="-333.7108045012824" x2="-86.77959054495312" y2="-532.9815218793709" stroke="#777" stroke-width="1"/><circle cx="-29.36152174371921" cy="-333.7108045012824" r="2.5" fill="#666"/><line x1="156.46003806251062" y1="-296.21825819735983" x2="-49.88628698515038" y2="-537.69076463227" stroke="#777" stroke-width="1"/><circle cx="156.46003806251062" cy="-296.21825819735983" r="2.5" fill="#666"/><line x1="263.5172601127853" y1="-206.8420982842966" x2="-7.179905461193743" y2="-539.9522654435004" stroke="#777" stroke-width="1"/><circle cx="263.5172601127853" cy="-206.8420982842966" r="2.5" fill="#666"/><line x1="280.2760466714144" y1="-183.49478919643235" x2="34.36617646836298" y2="-538.9053404030668" stroke="#777" stroke-width="1"/><circle cx="280.2760466714144" cy="-183.49478919643235" r="2.5" fill="#666"/><line x1="288.20634181813926" y1="-170.76915569213855" x2="74.51789660998452" y2="-534.833696661704" stroke="#777" stroke-width="1"/><circle cx="288.20634181813926" cy="-170.76915569213855" r="2.5" fill="#666"/><line x1="293.0965516208243" y1="-162.2325843595591" x2="113.0852936274393" y2="-528.0262459056329" stroke="#777" stroke-width="1"/><circle cx="293.0965516208243" cy="-162.2325843595591" r="2.5" fill="#666"/><line x1="296.9420832976629" y1="-155.0819111529253" x2="149.92018287272379" y2="-518.7715670383344" stroke="#777" stroke-width="1"/><circle cx="296.9420832976629" cy="-155.0819111529253" r="2.5" fill="#666"/><line x1="300.35986951501076" y1="-148.35413302272954" x2="184.9133694812009" y2="-507.35297947987743" stroke="#777" stroke-width="1"/><circle cx="300.35986951501076" cy="-148.35413302272954" r="2.5" fill="#666"/><line x1="303.62524966541577" y1="-141.5510782919506" x2="217.99147555570624" y2="-494.04424557426626" stroke="#777" stroke-width="1"/><circle cx="303.62524966541577" cy="-141.5510782919506" r="2.5" fill="#666"/><line x1="306.5057515212442" y1="-135.20068152342034" x2="249.113461806361" y2="-479.1059205925666" stroke="#777" stroke-width="1"/><circle cx="306.5057515212442" cy="-135.20068152342034" r="2.5" fill="#666"/><line x1="309.0326971520602" y1="-129.32050143315652" x2="278.2669305774989" y2="-462.78236283049665" stroke="#777" stroke-width="1"/><circle cx="309.0326971520602" cy="-129.32050143315652" r="2.5" fill="#666"/><line x1="311.44684626941336" y1="-123.39311953604391" x2="305.464302966634" y2="-445.299404460761" stroke="#777" stroke-width="1"/><circle cx="311.44684626941336" cy="-123.39311953604391" r="2.5" fill="#666"/><line x1="313.7473177121645" y1="-117.42069931840001" x2="330.738964782992" y2="-426.86266781515894" stroke="#777" stroke-width="1"/><circle cx="313.7473177121645" cy="-117.42069931840001" r="2.5" fill="#666"/><line x1="315.93327181137107" y1="-111.405420705468" x2="354.14147280233647" y2="-407.6564941729642" stroke="#777" stroke-width="1"/><circle cx="315.93327181137107" cy="-111.405420705468" r="2.5" fill="#666"/><line x1="318.00391069676476" y1="-105.34947926574695" x2="375.7359039336552" y2="-387.84343554475566" stroke="#777" stroke-width="1"/><circle cx="318.00391069676476" cy="-105.34947926574695" r="2.5" fill="#666"/><line x1="319.95847858797333" y1="-99.25508540961229" x2="395.5964164234124" y2="-367.5642465106666" stroke="#777" stroke-width="1"/><circle cx="319.95847858797333" cy="-99.25508540961229" r="2.5" fill="#666"/><line x1="321.79626207037904" y1="-93.12446358251907" x2="413.804075673678" y2="-346.93830424998185" stroke="#777" stroke-width="1"/><circle cx="321.79626207037904" cy="-93.12446358251907" r="2.5" fill="#666"/><line x1="323.5165903555146" y1="-86.95985145308238" x2="430.4439794675772" y2="-326.06438097424245" stroke="#777" stroke-width="1"/><circle cx="323.5165903555146" cy="-86.95985145308238" r="2.5" fill="#666"/><line x1="324.98021215537807" y1="-81.31950385636557" x2="445.6027000750025" y2="-305.02169379548627" stroke="#777" stroke-width="1"/><circle cx="324.98021215537807" cy="-81.31950385636557" r="2.5" fill="#666"/><line x1="326.21561909806417" y1="-76.21266204815778" x2="459.3660451846844" y2="-283.87116185231366" stroke="#777" stroke-width="1"/><circle cx="326.21561909806417" cy="-76.21266204815778" r="2.5" fill="#666"/><line x1="327.3707807378523" y1="-71.08707279870968" x2="471.8171267434104" y2="-262.6568082338483" stroke="#777" stroke-width="1"/><circle cx="327.3707807378523" cy="-71.08707279870968" r="2.5" fill="#666"/><line x1="328.4454129182206" y1="-65.94399694422214" x2="483.03471699324115" y2="-241.4072537834342" stroke="#777" stroke-width="1"/><circle cx="328.4454129182206" cy="-65.94399694422214" r="2.5" fill="#666"/><line x1="329.4392512919712" y1="-60.78469962240041" x2="493.0918643209373" y2="-220.1372602275734" stroke="#777" stroke-width="1"/><circle cx="329.4392512919712" cy="-60.78469962240041" r="2.5" fill="#666"/><line x1="330.35205138625656" y1="-55.61044996124483" x2="502.05473774117587" y2="-198.8492904479146" stroke="#777" stroke-width="1"/><circle cx="330.35205138625656" cy="-55.61044996124483" r="2.5" fill="#666"/><line x1="331.18358866271683" y1="-50.422520766859755" x2="509.9816675399297" y2="-177.53506350350236" stroke="#777" stroke-width="1"/><circle cx="331.18358866271683" cy="-50.422520766859755" r="2.5" fill="#666"/><line x1="331.93365857271385" y1="-45.2221882103579" x2="516.9223503558823" y2="-156.17709083777478" stroke="#777" stroke-width="1"/><circle cx="331.93365857271385" cy="-45.2221882103579" r="2.5" fill="#666"/><line x1="332.60207660764786" y1="-40.01073151393694" x2="522.9171893295025" y2="-134.75018776882374" stroke="#777" stroke-width="1"/><circle cx="332.60207660764786" cy="-40.01073151393694" r="2.5" fill="#666"/><line x1="333.1886783443443" y1="-34.78943263620539" x2="527.9967435022662" y2="-113.22296079418737" stroke="#777" stroke-width="1"/><circle cx="333.1886783443443" cy="-34.78943263620539" r="2.5" fill="#666"/><line x1="333.6933194855001" y1="-29.559575956835587" x2="532.1812650720585" y2="-91.5592764623195" stroke="#777" stroke-width="1"/><circle cx="333.6933194855001" cy="-29.559575956835587" r="2.5" fill="#666"/><line x1="334.11587589517933" y1="-24.322447960620966" x2="535.4803081483393" y2="-69.71972163856914" stroke="#777" stroke-width="1"/><circle cx="334.11587589517933" cy="-24.322447960620966" r="2.5" fill="#666"/><line x1="334.4562436293489" y1="-19.07933692101554" x2="537.8923981134803" y2="-47.663068005838234" stroke="#777" stroke-width="1"/><circle cx="334.4562436293489" cy="-19.07933692101554" r="2.5" fill="#666"/><line x1="334.71433896144777" y1="-13.831532583233427" x2="539.4047564518306" y2="-25.347755662805298" stroke="#777" stroke-width="1"/><circle cx="334.71433896144777" cy="-13.831532583233427" r="2.5" fill="#666"/><line x1="334.89009840298286" y1="-8.580325846986295" x2="539.9930818632016" y2="-2.733411765850066" stroke="#777" stroke-width="1"/><circle cx="334.89009840298286" cy="-8.580325846986295" r="2.5" fill="#666"/><line x1="334.98347871914626" y1="-3.327008448936828" x2="539.6213945647245" y2="20.217579677645556" stroke="#777" stroke-width="1"/><circle cx="334.98347871914626" cy="-3.327008448936828" r="2.5" fill="#666"/><line x1="334.99726325508107" y1="1.3541091558417064" x2="538.2419568453357" y2="43.538441535081446" stroke="#777" stroke-width="1"/><circle cx="334.99726325508107" cy="1.3541091558417064" r="2.5" fill="#666"/><line x1="334.9554691588326" y1="5.462021657437469" x2="535.7952891052576" y2="67.25628723482673" stroke="#777" stroke-width="1"/><circle cx="334.9554691588326" cy="5.462021657437469" r="2.5" fill="#666"/><line x1="334.8633035745714" y1="9.569112765792111" x2="532.2103067036337" y2="91.39031370131147" stroke="#777" stroke-width="1"/><circle cx="334.8633035745714" cy="9.569112765792111" r="2.5" fill="#666"/><line x1="334.72078036240123" y1="13.674764845698624" x2="527.404608833341" y2="115.9498968578695" stroke="#777" stroke-width="1"/><circle cx="334.72078036240123" cy="13.674764845698624" r="2.5" fill="#666"/><line x1="334.5279209553392" y1="17.778360478354898" x2="521.2849561815624" y2="140.9325883491345" stroke="#777" stroke-width="1"/><circle cx="334.5279209553392" cy="17.778360478354898" r="2.5" fill="#666"/><line x1="334.2847543560922" y1="21.879282554212796" x2="513.7479791033005" y2="166.32201888888522" stroke="#777" stroke-width="1"/><circle cx="334.2847543560922" cy="21.879282554212796" r="2.5" fill="#666"/><line x1="333.99131713269566" y1="25.976914365780704" x2="504.681162157163" y2="192.08572191523078" stroke="#777" stroke-width="1"/><circle cx="333.99131713269566" cy="25.976914365780704" r="2.5" fill="#666"/><line x1="333.6476534130141" y1="30.07063970036565" x2="493.96415378790675" y2="218.1729010958905" stroke="#777" stroke-width="1"/><circle cx="333.6476534130141" cy="30.07063970036565" r="2.5" fill="#666"/><line x1="333.2538148781053" y1="34.15984293274098" x2="481.4704512824553" y2="244.51217667402332" stroke="#777" stroke-width="1"/><circle cx="333.2538148781053" cy="34.15984293274098" r="2.5" fill="#666"/><line x1="332.8098607544481" y1="38.243909117725714" x2="467.06951040936923" y2="271.0093585947765" stroke="#777" stroke-width="1"/><circle cx="332.8098607544481" cy="38.243909117725714" r="2.5" fill="#666"/><line x1="332.3158578050361" y1="42.32222408266163" x2="450.62932586213344" y2="297.5453086053268" stroke="#777" stroke-width="1"/><circle cx="332.3158578050361" cy="42.32222408266163" r="2.5" fill="#666"/><line x1="331.7718803193374" y1="46.394174519774154" x2="432.01952222296103" y2="323.97396873552117" stroke="#777" stroke-width="1"/><circle cx="331.7718803193374" cy="46.394174519774154" r="2.5" fill="#666"/><line x1="331.26383708891495" y1="49.892586995753206" x2="411.11498510811475" y2="350.12064923331013" stroke="#777" stroke-width="1"/><circle cx="331.26383708891495" cy="49.892586995753206" r="2.5" fill="#666"/><line x1="330.8097385852617" y1="52.819663546361376" x2="387.8000479542154" y2="375.7806844513276" stroke="#777" stroke-width="1"/><circle cx="330.8097385852617" cy="52.819663546361376" r="2.5" fill="#666"/><line x1="330.3297766921229" y1="55.742610546441085" x2="361.9732311599104" y2="400.7185794590189" stroke="#777" stroke-width="1"/><circle cx="330.3297766921229" cy="55.742610546441085" r="2.5" fill="#666"/><line x1="329.823988933912" y1="58.661199473951136" x2="333.55250676863756" y2="424.66778218786277" stroke="#777" stroke-width="1"/><circle cx="329.823988933912" cy="58.661199473951136" r="2.5" fill="#666"/><line x1="329.2924148541619" y1="61.57520214757348" x2="302.4810335534362" y2="447.3312244192719" stroke="#777" stroke-width="1"/><circle cx="329.2924148541619" cy="61.57520214757348" r="2.5" fill="#666"/><line x1="328.7350960124335" y1="64.48439074455284" x2="268.73327453195435" y2="468.38277846151993" stroke="#777" stroke-width="1"/><circle cx="328.7350960124335" cy="64.48439074455284" r="2.5" fill="#666"/><line x1="328.2668654877953" y1="66.82712789592036" x2="232.32137225971726" y2="487.46977341304137" stroke="#777" stroke-width="1"/><circle cx="328.2668654877953" cy="66.82712789592036" r="2.5" fill="#666"/><line x1="327.89977085528454" y1="68.60568688565044" x2="193.30161781853346" y2="504.216703956481" stroke="#777" stroke-width="1"/><circle cx="327.89977085528454" cy="68.60568688565044" r="2.5" fill="#666"/><line x1="230.15203395421145" y1="243.42358403971357" x2="159.44135704816588" y2="515.9248527282236" stroke="#777" stroke-width="1"/><circle cx="230.15203395421145" cy="243.42358403971357" r="2.5" fill="#666"/><line x1="8.417407598900187" y1="334.8942329293145" x2="87.52724955844688" y2="532.8592502572639" stroke="#777" stroke-width="1"/><circle cx="8.417407598900187" cy="334.8942329293145" r="2.5" fill="#666"/><line x1="-73.38445997861783" y1="326.8634593123658" x2="50.640589120792455" y2="537.6202476967353" stroke="#777" stroke-width="1"/><circle cx="-73.38445997861783" cy="326.8634593123658" r="2.5" fill="#666"/><line x1="-106.58916471985513" y1="317.5905382159922" x2="13.556236678257708" y2="539.829814337003" stroke="#777" stroke-width="1"/><circle cx="-106.58916471985513" cy="317.5905382159922" r="2.5" fill="#666"/><line x1="-112.5489100543317" y1="315.5277211998685" x2="-23.57218482789162" y2="539.485265880765" stroke="#777" stroke-width="1"/><circle cx="-112.5489100543317" cy="315.5277211998685" r="2.5" fill="#666"/><line x1="-115.8283524957576" y1="314.338659343897" x2="-60.57087968208107" y2="536.5921808361904" stroke="#777" stroke-width="1"/><circle cx="-115.8283524957576" cy="314.338659343897" r="2.5" fill="#666"/><line x1="-121.49354372955571" y1="312.1927590960984" x2="-97.26757327904815" y2="531.1675999045923" stroke="#777" stroke-width="1"/><circle cx="-121.49354372955571" cy="312.1927590960984" r="2.5" fill="#666"/><line x1="-123.3887599748858" y1="311.4485734625542" x2="-133.49215634653908" y2="523.2397578490678" stroke="#777" stroke-width="1"/><circle cx="-123.3887599748858" cy="311.4485734625542" r="2.5" fill="#666"/><line x1="-132.24234572599494" y1="307.7937003853172" x2="-169.0772797935396" y2="512.847807305069" stroke="#777" stroke-width="1"/><circle cx="-132.24234572599494" cy="307.7937003853172" r="2.5" fill="#666"/><line x1="-144.6791438379254" y1="302.1472246080127" x2="-203.8589088895882" y2="500.0415435404808" stroke="#777" stroke-width="1"/><circle cx="-144.6791438379254" cy="302.1472246080127" r="2.5" fill="#666"/><line x1="-155.37037282346932" y1="296.79125197467687" x2="-237.6768471246436" y2="484.88113630135047" stroke="#777" stroke-width="1"/><circle cx="-155.37037282346932" cy="296.79125197467687" r="2.5" fill="#666"/><line x1="-163.88924731980194" y1="292.1734324214794" x2="-270.3752409976066" y2="467.4368717329497" stroke="#777" stroke-width="1"/><circle cx="-163.88924731980194" cy="292.1734324214794" r="2.5" fill="#666"/><line x1="-171.29739289297635" y1="287.8926938775441" x2="-301.8030770956024" y2="447.7889041229426" stroke="#777" stroke-width="1"/><circle cx="-171.29739289297635" cy="287.8926938775441" r="2.5" fill="#666"/><line x1="-178.1138122382531" y1="283.7260472532551" x2="-331.8146821567926" y2="426.0270140556661" stroke="#777" stroke-width="1"/><circle cx="-178.1138122382531" cy="283.7260472532551" r="2.5" fill="#666"/><line x1="-183.8820433383932" y1="280.0221315140953" x2="-360.2702353981048" y2="402.2503666700556" stroke="#777" stroke-width="1"/><circle cx="-183.8820433383932" cy="280.0221315140953" r="2.5" fill="#666"/><line x1="-189.10550132448606" y1="276.5214446816283" x2="-387.0363003150427" y2="376.56726124086265" stroke="#777" stroke-width="1"/><circle cx="-189.10550132448606" cy="276.5214446816283" r="2.5" fill="#666"/><line x1="-194.26233330711125" y1="272.92333329724084" x2="-411.98638053691354" y2="349.09486139456925" stroke="#777" stroke-width="1"/><circle cx="-194.26233330711125" cy="272.92333329724084" r="2.5" fill="#666"/><line x1="-198.89473225144582" y1="269.5661059603482" x2="-435.0015012897244" y2="319.9588940406031" stroke="#777" stroke-width="1"/><circle cx="-198.89473225144582" cy="269.5661059603482" r="2.5" fill="#666"/><line x1="-203.01837317776153" y1="266.4742767177634" x2="-455.97081474550697" y2="289.29330462407626" stroke="#777" stroke-width="1"/><circle cx="-203.01837317776153" cy="266.4742767177634" r="2.5" fill="#666"/><line x1="-207.0939593565576" y1="263.3193726219635" x2="-474.7922242008198" y2="257.2398566288639" stroke="#777" stroke-width="1"/><circle cx="-207.0939593565576" cy="263.3193726219635" r="2.5" fill="#666"/></g></g></svg>